<?xml version="1.0" encoding="utf-8"?>
<!-- Generator: Adobe Illustrator 18.0.0, SVG Export Plug-In . SVG Version: 6.00 Build 0)  -->
<!DOCTYPE svg PUBLIC "-//W3C//DTD SVG 1.1//EN" "http://www.w3.org/Graphics/SVG/1.1/DTD/svg11.dtd">
<svg version="1.1" id="Layer_1" xmlns="http://www.w3.org/2000/svg" xmlns:xlink="http://www.w3.org/1999/xlink" x="0px" y="0px"
	 viewBox="0 0 612 792" enable-background="new 0 0 612 792" xml:space="preserve">
<g id="Layer_1_1_" display="none">
	
		<image display="inline" overflow="visible" enable-background="new    " width="709" height="637" xlink:href="2EA555EF.png"  transform="matrix(1.1285 0 0 1.256 -94 -4)">
	</image>
</g>
<g id="Layer_2">
	<path fill="#3C454F" d="M306,187c0,0,48-37.4,140-71c68-24.8,185-36,192-34s20,5,20,16c0,102-1,426-1,431s-10,15-19,16
		s-72-3-177,27c-63,18-155,77-155,77V187z M455,535c51.5-17.5,165-24,165-24V118c0,0-77.9,0.5-165,32c-94,34-131,66-131,66v380
		C324,596,399,554,455,535z"/>
	<path fill="#3C454F" d="M306,677c0,0,71-55,141-76c98.8-29.6,160-32.1,199-28c19,2,17.9,31.1,0,33c-37,4-81.1-6.8-186,27
		c-90,29-154,83-154,83V677z"/>
	<path fill="#3C454F" d="M371,242c57-30,130-50,175-57c32.7-5.1,35.8,27.7,11,32c-58,10-104,25-172,55
		C362.9,281.8,347.2,254.5,371,242z"/>
	<path fill="#3C454F" d="M373,325c57-30,130-50,175-57c32.7-5.1,35.8,27.7,11,32c-58,10-104,25-172,55
		C364.9,364.8,349.2,337.5,373,325z"/>
	<path fill="#3C454F" d="M306.8,649c0,0-92-59-155-77c-105-30-168-26-177-27s-19-11-19-16s-1-329-1-431c0-11,13-14,20-16
		s124,9.2,192,34c92,33.6,140,71,140,71V649z M288.8,596V216c0,0-37-32-131-66c-87.1-31.5-165-32-165-32v393c0,0,113.5,6.5,165,24
		C213.8,554,288.8,596,288.8,596z"/>
	<path fill="#3C454F" d="M306.8,677c0,0-71-55-141-76c-98.8-29.6-160-32.1-199-28c-19,2-17.9,31.1,0,33c37,4,81.1-6.8,186,27
		c90,29,154,83,154,83V677z"/>
	<path fill="#3C454F" d="M241.8,242c-57-30-130-50-175-57c-32.7-5.1-35.8,27.7-11,32c58,10,104,25,172,55
		C250,281.8,265.7,254.5,241.8,242z"/>
	<path fill="#3C454F" d="M239.8,325c-57-30-130-50-175-57c-32.7-5.1-35.8,27.7-11,32c58,10,104,25,172,55
		C248,364.8,263.7,337.5,239.8,325z"/>
</g>
</svg>
