<svg xmlns="http://www.w3.org/2000/svg" version="1.1" x="0" y="0" viewBox="0 0 612 792" enable-background="new 0 0 612 792" xml:space="preserve"><path fill="#000" d="M555.4 90H134.7c-52.8 0-95.5 42.4-96.3 95l-0.2-0.2v420.8c0 53.2 43.2 96.4 96.4 96.4h325.1c21.1 0 37.4-17.1 37.4-38.3V262.1c0-10.6-7.8-19.1-18.3-19.1H134.7c-32.1 0-58.2-24.5-58.2-56.6s26.1-58.2 58.2-58.2h400.8v439.9c0 10.5 9.4 19.1 19.9 19.1s18.3-8.6 18.3-19.1v-459C573.8 98.6 566 90 555.4 90zM134.7 281.3H459l0.8 382.5H134.7c-32.1 0-58.2-26.1-58.2-58.2v-343C92.6 274.3 112.6 281.3 134.7 281.3z" /></svg>