<svg xmlns="http://www.w3.org/2000/svg" version="1.1" x="0" y="0" viewBox="-50 0 720 600" enable-background="new 0 0 700 600" xml:space="preserve"><g display="none"><image display="inline" overflow="visible" enable-background="new    " width="700" height="600" transform="matrix(1.1285 0 0 1.256 -94 -4)" /></g><path fill="#000" d="M306 187c0 0 48-37.4 140-71 68-24.8 185-36 192-34s20 5 20 16c0 102-1 426-1 431s-10 15-19 16 -72-3-177 27c-63 18-155 77-155 77V187zM455 535c51.5-17.5 165-24 165-24V118c0 0-77.9 0.5-165 32 -94 34-131 66-131 66v380C324 596 399 554 455 535zM306 677c0 0 71-55 141-76 98.8-29.6 160-32.1 199-28 19 2 17.9 31.1 0 33 -37 4-81.1-6.8-186 27 -90 29-154 83-154 83V677zM371 242c57-30 130-50 175-57 32.7-5.1 35.8 27.7 11 32 -58 10-104 25-172 55C362.9 281.8 347.2 254.5 371 242zM373 325c57-30 130-50 175-57 32.7-5.1 35.8 27.7 11 32 -58 10-104 25-172 55C364.9 364.8 349.2 337.5 373 325zM306.8 649c0 0-92-59-155-77 -105-30-168-26-177-27s-19-11-19-16 -1-329-1-431c0-11 13-14 20-16s124 9.2 192 34c92 33.6 140 71 140 71V649zM288.8 596V216c0 0-37-32-131-66 -87.1-31.5-165-32-165-32v393c0 0 113.5 6.5 165 24C213.8 554 288.8 596 288.8 596zM306.8 677c0 0-71-55-141-76 -98.8-29.6-160-32.1-199-28 -19 2-17.9 31.1 0 33 37 4 81.1-6.8 186 27 90 29 154 83 154 83V677zM241.8 242c-57-30-130-50-175-57 -32.7-5.1-35.8 27.7-11 32 58 10 104 25 172 55C250 281.8 265.7 254.5 241.8 242zM239.8 325c-57-30-130-50-175-57 -32.7-5.1-35.8 27.7-11 32 58 10 104 25 172 55C248 364.8 263.7 337.5 239.8 325z" /></svg>