<svg xmlns="http://www.w3.org/2000/svg" version="1.1" x="0" y="0" viewBox="0 0 612 792" enable-background="new 0 0 612 792" xml:space="preserve"><path fill="#000" d="M535.5 90h-459c-21.1 0-38.3 17.1-38.3 38.3v535.5c0 21.1 17.1 38.3 38.3 38.3h459c21.1 0 38.3-17.1 38.3-38.3V128.3C573.8 107.1 556.6 90 535.5 90zM535.5 663.8h-459V128.3h459V663.8zM286.9 243h153c10.5 0 19.1-8.6 19.1-19.1s-8.6-19.1-19.1-19.1h-153c-10.6 0-19.1 8.6-19.1 19.1S276.3 243 286.9 243zM172.1 357.8h267.8c10.5 0 19.1-8.6 19.1-19.1s-8.6-19.1-19.1-19.1H172.1c-10.6 0-19.1 8.6-19.1 19.1S161.6 357.8 172.1 357.8zM172.1 472.5h267.8c10.5 0 19.1-8.6 19.1-19.1s-8.6-19.1-19.1-19.1H172.1c-10.6 0-19.1 8.6-19.1 19.1S161.6 472.5 172.1 472.5zM172.1 587.3h267.8c10.5 0 19.1-8.6 19.1-19.1s-8.6-19.1-19.1-19.1H172.1c-10.6 0-19.1 8.6-19.1 19.1S161.6 587.3 172.1 587.3z" /></svg>