<?xml version="1.0" encoding="utf-8"?>
<!-- Generator: Adobe Illustrator 16.0.4, SVG Export Plug-In . SVG Version: 6.00 Build 0)  -->
<!DOCTYPE svg PUBLIC "-//W3C//DTD SVG 1.1//EN" "http://www.w3.org/Graphics/SVG/1.1/DTD/svg11.dtd">
<svg version="1.1" id="Layer_1" xmlns="http://www.w3.org/2000/svg" xmlns:xlink="http://www.w3.org/1999/xlink" x="0px" y="0px"
	 width="50px" height="50px" viewBox="0 0 50 50" enable-background="new 0 0 50 50" xml:space="preserve">
<path d="M32.424,19.827c0,3.956-4.533,5.477-5.507,6.907c-0.729,1.064-0.486,2.557-2.495,2.557c-1.309,0-1.946-1.064-1.946-2.039
	c0-3.623,5.323-4.442,5.323-7.425c0-1.643-1.096-2.616-2.921-2.616c-3.895,0-2.373,4.016-5.323,4.016
	c-1.066,0-1.979-0.639-1.979-1.855c0-2.983,3.407-5.628,7.119-5.628C28.59,13.742,32.424,15.536,32.424,19.827z M24.545,31.268
	c-1.369,0-2.496,1.125-2.496,2.495s1.127,2.495,2.496,2.495c1.367,0,2.494-1.125,2.494-2.495S25.912,31.268,24.545,31.268z M41,25
	c0,8.822-7.178,16-16,16S9,33.822,9,25S16.178,9,25,9S41,16.177,41,25z M38,25c0-7.168-5.832-13-13-13s-13,5.832-13,13
	s5.832,13,13,13S38,32.168,38,25z"/>
</svg>
